<svg width="1440" height="1024" viewBox="0 0 1440 1024" fill="none" xmlns="http://www.w3.org/2000/svg">
<g id="Mohaka 1">
<g clip-path="url(#clip0)">
<g id="Patterns">
<g id="Mohaka">
<g id="Shape">
<path id="Vector" fill-rule="evenodd" clip-rule="evenodd" d="M-1.95456 -3.36455C64.787 -6.40497 131.166 -15.217 197.998 -16.0587C194.693 25.6654 193.67 67.5184 191.035 109.285C126.439 113.339 62.523 124.591 -2.27151 126.059C-3.14087 82.918 -2.69714 39.7681 -1.95456 -3.36455Z" fill="#228085"/>
<path id="Vector_2" fill-rule="evenodd" clip-rule="evenodd" d="M385.337 -6.3277C442.633 0.457411 487.668 1.29911 542.908 -1.89591C544.466 43.3496 549.818 88.5693 550.959 133.987C491.634 136.134 437.761 127.262 378.146 118.896C318.532 110.531 252.768 105.249 191.424 109.328C193.688 67.5441 193.896 25.6138 198.823 -15.9643C258.854 -17.2698 328.04 -13.1042 385.337 -6.3277Z" fill="#D55151"/>
<path id="Vector_3" fill-rule="evenodd" clip-rule="evenodd" d="M542.157 -1.99897C602.948 -6.7829 663.677 -4.5756 724.559 -3.78543C724.396 39.1583 725.157 82.102 725.112 125.046C666.837 126.111 608.808 131.058 550.624 133.969C549.836 88.5006 545.281 43.3324 542.157 -1.99897Z" fill="#242C2D"/>
<path id="Vector_4" fill-rule="evenodd" clip-rule="evenodd" d="M724.559 -3.7854C784.4 -3.07253 844.16 0.38873 903.956 -3.64798C905.667 38.016 907.732 79.723 907.035 121.43C846.433 124.797 785.777 124.007 725.112 125.02C725.157 82.0849 724.396 39.1497 724.559 -3.7854Z" fill="#F4B943"/>
<path id="Vector_5" fill-rule="evenodd" clip-rule="evenodd" d="M903.956 -3.64802C969.991 -8.20005 1036.01 -12.5975 1102.28 -11.9104C1099.75 30.4579 1097.82 72.8519 1094.7 115.203C1032.04 113.021 969.538 117.883 907.044 121.447C907.741 79.7229 905.676 38.016 903.956 -3.64802Z" fill="#D55151"/>
<path id="Vector_6" d="M1276.85 128.868C1273.63 172.138 1266.22 214.987 1262.13 258.18C1202.26 252.168 1142.54 244.223 1082.27 243.201C1086.2 200.627 1091.49 157.829 1094.67 115.289C1097.85 72.7489 1099.72 30.561 1102.27 -11.9276C1162.8 -11.1202 1222.97 -4.34369 1283.39 -1.09714C1280.84 42.2073 1280.05 85.5976 1276.85 128.868Z" fill="#242C2D"/>
<path id="Vector_7" fill-rule="evenodd" clip-rule="evenodd" d="M1283.37 -1.09714C1339.4 1.52243 1395.01 -7.96813 1451.01 -7.02337C1452.21 39.4074 1454.8 85.8295 1453.21 132.286C1394.43 131.238 1335.58 132.75 1276.88 128.851C1279.98 85.5805 1280.84 42.2073 1283.37 -1.09714Z" fill="#F4B943"/>
<path id="Vector_8" fill-rule="evenodd" clip-rule="evenodd" d="M178.012 274.146C175.449 319.847 175.603 340.786 175.032 380.878C115.834 381.471 56.8903 382.794 -2.38019 384.924C-2.38019 346.532 -2.38019 332.103 -2.10851 287.777C-1.83684 243.45 -1.09426 174.017 -2.38019 124.563C62.2876 120.887 126.376 109.981 190.953 108.005C187.575 158.636 180.557 228.437 178.012 274.146Z" fill="#F4B943"/>
<path id="Vector_9" fill-rule="evenodd" clip-rule="evenodd" d="M175.64 395.849C174.417 350.612 175.64 286.858 180.05 239.972C184.46 193.086 187.865 153.964 191.08 108.925C254.29 105.867 317.291 110.874 380.066 118.647C374.488 162.853 368.239 200.292 358.332 245.898C348.425 291.504 344.929 354.838 349.53 400.143C354.13 445.449 359.863 476.755 367.497 518.668C306.306 507.408 244.093 509.701 182.287 511.522C180.385 469.789 176.871 441.043 175.64 395.849Z" fill="#228085"/>
<path id="Vector_10" fill-rule="evenodd" clip-rule="evenodd" d="M745.931 251.859C685.167 252.494 598.683 272.076 534.278 272.016C469.873 271.956 419.477 249.986 358.513 242.754C367.741 201.778 375.855 160.741 379.342 119.154C438.54 126.695 492.15 137.051 554.038 134.053C615.925 131.056 695.666 121.868 754.819 121.447C813.971 121.026 853.333 124.084 908.33 121.447C905.676 163.12 900.542 204.655 897.535 246.095C841.905 248.638 806.705 251.214 745.931 251.859Z" fill="#EADDCD"/>
<path id="Vector_11" fill-rule="evenodd" clip-rule="evenodd" d="M1082.24 243.605C1078.25 286.918 1076.42 331.528 1077.84 375.21C1013.01 369.894 948.067 364.766 882.928 364.904C883.834 324.476 889.702 285.973 895.778 245.615C901.855 205.256 906.22 162.707 907.017 121.533C969.502 117.651 1031.99 113.193 1094.7 115.083C1091.42 158.233 1086.23 200.3 1082.24 243.605Z" fill="#5AA7B2"/>
<path id="Vector_12" fill-rule="evenodd" clip-rule="evenodd" d="M1446.02 283.13C1445.11 326.177 1448.93 347.348 1451.31 385.895C1388.47 383.198 1325.63 385.199 1262.7 384.52C1261.37 345.278 1258.31 322.321 1260.69 278.922C1263.07 235.523 1273.22 176.716 1276.81 129.787C1335.61 132.209 1394.43 130.543 1453.18 133.282C1451.31 180.16 1446.94 240.083 1446.02 283.13Z" fill="#D55151"/>
<path id="Vector_13" fill-rule="evenodd" clip-rule="evenodd" d="M358.857 240.983C416.815 248.438 475.672 270.072 534.779 270.407C525.923 317.086 518.141 365.78 521.555 413.164C462.864 406.662 406.138 390.318 348.072 380.527C345.862 334.276 349.883 286.452 358.857 240.983Z" fill="#242C2D"/>
<path id="Vector_14" fill-rule="evenodd" clip-rule="evenodd" d="M694.077 389.639C637.487 403.656 580.599 418.953 521.419 413.172C519.245 365.677 520.26 318.619 532.557 272.034C597.759 271.982 676.69 252.546 737.953 251.884C799.216 251.223 839.985 248.775 897.245 246.044C888.189 285.466 884.241 324.786 883.073 364.955C881.905 405.125 887.326 445.86 892.189 485.806C836.224 484.483 780.271 493.365 729.259 515.722C715.902 473.706 696.568 434.086 694.077 389.639Z" fill="#D55151"/>
<path id="Vector_15" fill-rule="evenodd" clip-rule="evenodd" d="M1262.73 383.421C1265.53 424.741 1275.21 477.908 1277.14 519.091C1214.19 519.83 1144.99 518.524 1082.22 510.459C1080.34 466.579 1079.26 419.219 1077.81 375.253C1076.36 331.287 1078.27 287.09 1082.22 243.227C1142.5 244.223 1202.23 252.159 1262.09 258.24C1258.34 299.749 1260.01 342.109 1262.73 383.421Z" fill="#228085"/>
<path id="Vector_16" fill-rule="evenodd" clip-rule="evenodd" d="M-2.37112 383.756C56.9718 383.567 116.125 378.603 175.386 376.121C175.929 421.057 180.149 465.839 182.25 510.706C120.788 511.17 59.3988 512.578 -2.03606 512.656C-2.05417 469.712 -2.16586 426.745 -2.37112 383.756Z" fill="#1A9E78"/>
<path id="Vector_17" fill-rule="evenodd" clip-rule="evenodd" d="M521.5 413.026C580.363 419.184 637.623 403.416 694.077 389.648C696.595 434.052 715.857 473.62 729.232 515.713C673.059 540.14 617.049 552.671 554.563 549.69C492.078 546.71 429.267 528.536 367.433 517.964C358.839 472.375 350.598 426.768 348.09 380.561C406.238 390.172 462.646 406.885 521.5 413.026Z" fill="#5AA7B2"/>
<path id="Vector_18" fill-rule="evenodd" clip-rule="evenodd" d="M882.946 364.801C948.058 364.972 1013.02 369.688 1077.83 375.305C1079.32 419.15 1083.05 462.91 1084.94 506.712C1020.57 498.003 956.344 487.628 891.232 485.575C886.007 445.466 882.385 405.236 882.946 364.801Z" fill="#1A9E78"/>
<path id="Vector_19" fill-rule="evenodd" clip-rule="evenodd" d="M1262.78 383.696C1325.6 385.688 1388.48 383.833 1451.34 385.001C1455.15 429.165 1449.75 472.881 1446.12 516.873C1389.15 507.571 1331.61 505.355 1273.9 505.965C1271.94 465.074 1265.61 424.527 1262.78 383.696Z" fill="#EADDCD"/>
<path id="Vector_20" fill-rule="evenodd" clip-rule="evenodd" d="M-2.03604 512.656C59.3988 512.578 124.601 511.095 186.045 510.632C187.856 550.767 186.298 592.882 186.045 633.068C123.161 634.863 60.8115 641.709 -2.03604 643.83C-2.85107 600.912 -2.06321 555.6 -2.03604 512.656Z" fill="#EADDCD"/>
<path id="Vector_21" fill-rule="evenodd" clip-rule="evenodd" d="M186.162 631.567C187.222 590.813 181.634 551.185 184.442 511.067C252.759 507.58 342.889 510.065 404.423 522.51C465.958 534.955 499.811 544.975 556.927 550.266C562.958 592.531 574.622 636.42 569.695 679.741C527.939 680.875 468.587 667.399 433.36 658.57C398.132 649.741 405.015 651.699 376.697 645.18C375.113 686.552 359.962 725.244 352.971 765.68C294.914 754.386 235.988 751.844 176.935 755.288C181.327 714.44 185.085 672.321 186.162 631.567Z" fill="#F4B943"/>
<path id="Vector_22" fill-rule="evenodd" clip-rule="evenodd" d="M352.727 766.582C360.823 724.437 370.416 685.182 374.555 643.2C438.788 656.392 502.638 676.602 568.754 679.007C568.6 634.878 566.68 592.463 554.572 549.776C616.152 552.499 673.381 539.824 729.283 515.552C742.93 560.385 745.931 608.438 747.371 654.533C748.811 700.629 746.257 745.033 741.322 790.708C703.65 796.334 649.559 801.238 616.143 802.423C582.727 803.608 580.572 802.32 552.824 802.011C548.297 839.045 538.842 875.874 538.082 913.475C472.028 910.959 406.6 903.023 340.728 898.935C339.578 855.252 344.64 808.719 352.727 766.582Z" fill="#1A9E78"/>
<path id="Vector_23" fill-rule="evenodd" clip-rule="evenodd" d="M918.789 486.409C978.685 490.797 1028.9 497.929 1086.76 505.014C1086.76 543.363 1090.16 584.237 1092.62 622.475C1036.36 619.245 986.038 615.094 928.026 619.045C870.014 622.995 803.892 640.852 747.257 658.94C744.54 612.166 740.674 561.14 728.395 515.662C785.247 487.938 858.893 482.02 918.789 486.409Z" fill="#228085"/>
<path id="Vector_24" fill-rule="evenodd" clip-rule="evenodd" d="M1268.53 791.79C1257.67 859.718 1257.12 847.746 1257.19 903.993C1210.58 890.492 1207.83 895.662 1150.55 887.503C1093.26 879.344 971.259 889.461 906.102 903.993C900.053 858.37 916.29 806.923 906.102 762.039C966.993 747.309 1028.82 737.509 1091.62 742.388C1095.55 663.526 1088.34 585.282 1085.02 506.249C1147.25 517.655 1211.1 501.533 1273.17 509.615C1283.66 590.015 1279.4 723.939 1268.53 791.79Z" fill="#5AA7B2"/>
<path id="Vector_25" fill-rule="evenodd" clip-rule="evenodd" d="M1266.89 799.211C1274.18 755.219 1277.41 686.38 1276.73 638.601C1276.05 590.822 1276.1 551.194 1273.83 505.476C1331.58 505.802 1389.13 507.511 1446.08 516.641C1443 561.68 1441.89 603.671 1443.27 650.119C1444.64 696.567 1448.57 759.711 1445.24 802.397C1441.91 845.083 1441.24 863.575 1439.91 901.391C1377.98 898.728 1316.11 902.645 1254.03 899.673C1257.09 860.715 1259.59 843.202 1266.89 799.211Z" fill="#D55151"/>
<path id="Vector_26" fill-rule="evenodd" clip-rule="evenodd" d="M177.034 755.391C235.897 751.681 294.977 754.481 352.881 765.697C344.468 809.698 339.94 854.333 340.619 899.081C283.295 896.229 225.383 892.21 168.087 893.687C110.791 895.164 54.3275 898.196 -2.86015 899.888C-1.32972 860.517 -3.11372 838.908 -2.95977 795.105C-2.80582 751.303 -1.30255 690.151 -2.37114 642.535C60.416 637.737 123.203 633.897 185.99 631.017C185.574 672.759 180.946 713.959 177.034 755.391Z" fill="#5AA7B2"/>
<path id="Vector_27" fill-rule="evenodd" clip-rule="evenodd" d="M747.516 655.057C797.559 639.915 848.38 626.929 900.714 621.441C901.474 668.378 898.749 715.539 906.401 762.124C852.546 775.343 795.686 784.003 740.69 791.398C743.307 746.264 749.209 700.294 747.516 655.057Z" fill="#D55151"/>
<path id="Vector_28" fill-rule="evenodd" clip-rule="evenodd" d="M900.714 621.441C963.969 614.407 1027.76 617.189 1091.1 621.681C1092.72 661.911 1093.62 702.166 1091.59 742.396C1028.98 737.638 966.876 747.223 906.401 762.15C898.73 715.539 901.474 668.378 900.714 621.441Z" fill="#F4B943"/>
<path id="Vector_29" fill-rule="evenodd" clip-rule="evenodd" d="M741.28 789.958C800.025 782.099 850.689 775.471 906.935 762.047C913.473 807.009 917.367 852.066 916.308 897.466C854.728 905.78 796.535 908.631 733.479 911.071C670.424 913.51 602.423 915.691 538.362 913.45C539.44 875.797 544.767 837.193 552.564 800.192C613.347 804.392 682.535 797.808 741.28 789.958Z" fill="#228085"/>
<path id="Vector_30" fill-rule="evenodd" clip-rule="evenodd" d="M-2.74243 898.883C54.1464 899.304 110.881 894.829 167.734 893.601C165.778 939.766 164.111 985.93 161.268 1032.05C104.542 1029.41 47.7711 1028 -8.9819 1026.9C-6.65455 984.23 -4.78905 941.552 -2.74243 898.883Z" fill="#D55151"/>
<path id="Vector_31" fill-rule="evenodd" clip-rule="evenodd" d="M167.734 893.601C225.474 892.528 283.096 896.015 340.7 899.124C341.787 943.407 343.662 987.674 343.372 1031.97C282.698 1031.89 221.942 1034.8 161.259 1032.05C164.102 985.896 165.778 939.766 167.734 893.601Z" fill="#242C2D"/>
<path id="Vector_32" fill-rule="evenodd" clip-rule="evenodd" d="M340.709 899.149C406.573 902.791 476.542 908.183 542.522 910.493C541.318 948.653 545.525 993.866 546.122 1032C480.015 1030.21 409.48 1032.03 343.354 1032C343.671 987.674 341.796 943.407 340.709 899.149Z" fill="#5AA7B2"/>
<path id="Vector_33" fill-rule="evenodd" clip-rule="evenodd" d="M779.148 908.717C842.847 904.998 863.711 903.332 918.608 897.303C912.359 945.262 905.024 992.475 904.345 1040.49C852.12 1037.11 834.479 1034.48 773.488 1032.87C712.497 1031.25 613.317 1030.15 544.439 1027.88C539.304 989.597 532.33 949.17 538.116 910.709C609.82 914.978 715.449 912.436 779.148 908.717Z" fill="#EADDCD"/>
<path id="Vector_34" fill-rule="evenodd" clip-rule="evenodd" d="M915.955 897.475C970.743 889.676 1025.62 880.297 1081.25 882.109C1077.76 929.914 1075.41 977.779 1072.2 1025.59C1015.41 1029.89 958.997 1044.99 901.728 1040.41C906.609 992.767 914.08 945.348 915.955 897.475Z" fill="#242C2D"/>
<path id="Vector_35" fill-rule="evenodd" clip-rule="evenodd" d="M1081.25 882.109C1139.21 884.411 1196.48 893.927 1254.22 898.668C1253.21 942.007 1261.93 984.728 1264.54 1027.89C1200.41 1027.89 1136.29 1021.29 1072.19 1025.59C1075.4 977.779 1077.78 929.914 1081.25 882.109Z" fill="#1A9E78"/>
<path id="Vector_36" fill-rule="evenodd" clip-rule="evenodd" d="M1254.23 898.668C1316.05 903.427 1378.06 899.295 1439.98 900.472C1439.44 942.823 1440.43 985.166 1440.58 1027.52C1381.9 1027.04 1323.22 1027.77 1264.55 1027.89C1261.92 984.736 1253.24 942.007 1254.23 898.668Z" fill="#EADDCD"/>
</g>
</g>
</g>
</g>
</g>
<defs>
<clipPath id="clip0">
<rect width="1440" height="1024" rx="10" fill="white"/>
</clipPath>
</defs>
</svg>
